<svg fill="none" height="493" viewBox="0 0 805 493" width="805" xmlns="http://www.w3.org/2000/svg" xmlns:xlink="http://www.w3.org/1999/xlink"><linearGradient id="a" gradientUnits="userSpaceOnUse" x1="385.426" x2="384.802" y1="179.403" y2="293.782"><stop offset="0" stop-color="#288c42"/><stop offset="1" stop-color="#fffcf9" stop-opacity="0"/></linearGradient><linearGradient id="b" gradientUnits="userSpaceOnUse" x1="160.562" x2="223.856" y1="200.265" y2="328.249"><stop offset="0" stop-color="#aeea99"/><stop offset="1" stop-color="#fffbe4"/></linearGradient><linearGradient id="c" gradientUnits="userSpaceOnUse" x1="688.369" x2="674.281" y1="191.52" y2="329.588"><stop offset="0" stop-color="#9cd18e"/><stop offset="1" stop-color="#fff"/><stop offset="1" stop-color="#eaff94"/></linearGradient><linearGradient id="d" gradientUnits="userSpaceOnUse" x1="406.758" x2="398.382" y1=".608994" y2="281.709"><stop offset="0" stop-color="#fffb92" stop-opacity=".28"/><stop offset=".973277" stop-color="#fff" stop-opacity=".43"/></linearGradient><linearGradient id="e" gradientUnits="userSpaceOnUse" x1="407.867" x2="415.137" y1="28.5329" y2="313.356"><stop offset="0" stop-color="#fffb92"/><stop offset="1" stop-color="#fff"/></linearGradient><linearGradient id="f" gradientUnits="userSpaceOnUse" x1="406.917" x2="406.758" y1="80.6574" y2="329.645"><stop offset="0" stop-color="#fff27c"/><stop offset="1" stop-color="#fffef7"/></linearGradient><linearGradient id="g" gradientUnits="userSpaceOnUse" x1="403.965" x2="403.965" y1="190.026" y2="353.381"><stop offset=".215544" stop-color="#fff"/><stop offset="1" stop-color="#fff" stop-opacity="0"/></linearGradient><linearGradient id="h" gradientUnits="userSpaceOnUse" x1="416.997" x2="408.154" y1="254.716" y2="318.941"><stop offset="0" stop-color="#fff991"/><stop offset="1" stop-color="#ff7862"/></linearGradient><linearGradient id="i" gradientUnits="userSpaceOnUse" x1="417.927" x2="408.619" y1="255.647" y2="307.772"><stop offset="0" stop-color="#fdff88"/><stop offset="1" stop-color="#fe8363"/></linearGradient><linearGradient id="j" gradientUnits="userSpaceOnUse" x1="383.488" x2="383.509" y1="319.872" y2="490"><stop offset="0" stop-color="#d6f4a4"/><stop offset="1" stop-color="#fcf6f1"/></linearGradient><path d="m672.76 241.155c53.343 35.428 89.8 50.127 127.724 59.927v106.285h-794.89922v-124.376c10.35812-15.956 39.49442-46.66 73.17492-41.836 42.1003 6.03 71.1703 41.836 113.2703 35.428 42.101-6.407 98.736-30.905 142.842-50.504 44.105-19.599 58.64 1.131 91.218 15.076s65.142-16.976 105.739-46.374 66.789-20.365 91.719 6.407c10.143 10.893 18.407 24.891 49.212 39.967z" fill="url(#a)"/><path d="m58.5469 187.844c-53.55962 32.499-66.12973 27.132-80.886 35.135v256.99h427.9301c.547-20.983 5.66-198.397-10.93-203.41-21.315-6.442-23.606-15.941-34.431-16.982-16.396-1.577-32.246 5.27-60.665-8.491-19.904-9.638-44.269-20.202-65.583-18.153-21.315 2.05-32.375 1.464-41.536-7.905-6.012-6.149-42.629-34.842-71.049-44.211-28.4189-9.369-48.4449-1.714-62.8501 7.027z" fill="url(#b)"/><path d="m764.796 207.983c13.102 12.125 29.115 20.855 39.702 25.26v346.743h-458.065v-261.64c15.55 4.016 53.3 4.741 79.901-24.482 26.6-29.222 43.176-26.036 56.576-17.875 13.399 8.16 24.317 19.896 44.168-4.663 24.814-30.7 43.673-17.488 53.599-10.104 9.925 7.383 24.264 13.629 45.161 2.72 44.665-23.316 53.49-56.958 74.938-72.28 28.288-20.207 49.742 3.109 64.02 16.321z" fill="url(#c)"/><ellipse cx="406.758" cy="226.327" fill="url(#d)" fill-opacity=".9" rx="225.253" ry="225.718"/><ellipse cx="407.223" cy="225.862" fill="url(#e)" fill-opacity=".5" rx="197.794" ry="197.329"/><circle cx="406.442" cy="226.476" fill="url(#f)" r="145.819"/><path d="m467.75 353.615c-4.804-8.187-10.279-11.836-17.752-11.836h-7.041v-32.181c9.77-6.211 18.039-14.725 24.109-24.806 1.259 1.235 2.907 1.966 5.071 1.966 3.215 0 7.735-5.442 10.89-10.533 3.175-5.123 6.572-12.547 6.572-18.021 0-10.578-7.206-13.658-11.409-13.871-.073-42.018-33.029-76.181-73.529-76.181s-73.453 34.163-73.526 76.184c-4.203.213-11.409 3.293-11.409 13.871 0 5.478 3.394 12.901 6.572 18.022 3.159 5.091 7.675 10.532 10.89 10.532 2.164 0 3.813-.734 5.071-1.966 6.103 10.14 14.435 18.694 24.278 24.915v23.05c0 4.675-3.836 8.478-8.554 8.478h-7.708c-8.828 0-16.85 3.096-22.586 8.721-6.122 6.002-9.357 14.441-9.357 24.403l3.981 67.444h82.348 82.347l-14.259-75.054c-1.028-4.816-2.71-9.235-4.999-13.137z" fill="url(#g)"/><path d="m418.461 301.087v.5h.5 1.952c.947 0 1.746.229 2.46.706.722.483 1.387 1.238 2.029 2.334.605 1.034 1.053 2.211 1.328 3.501l.002.011.003.011 2.686 10.291h-22.178-22.324v-8.303c0-2.657.858-4.865 2.444-6.422 1.486-1.462 3.579-2.28 5.909-2.28h2.137c1.581 0 2.871-1.277 2.871-2.855v-6.403-.275l-.233-.147c-2.661-1.686-4.916-4.005-6.568-6.756l-.326-.544-.452.444c-.253.248-.583.403-1.056.403-.087 0-.237-.04-.455-.179-.212-.136-.449-.339-.7-.6-.501-.521-1.012-1.221-1.438-1.91-.427-.689-.868-1.533-1.201-2.385-.335-.858-.546-1.687-.546-2.358 0-1.345.452-2.153.981-2.637.545-.497 1.218-.692 1.707-.717l.473-.024.001-.474c.02-11.416 8.949-20.664 19.88-20.664s19.86 9.248 19.88 20.663l.001.474.474.024c.488.025 1.162.22 1.706.717.53.484.981 1.292.981 2.637 0 .67-.21 1.499-.546 2.358-.333.851-.774 1.695-1.2 2.385-.426.689-.937 1.389-1.438 1.91-.251.261-.488.464-.7.6-.218.139-.368.179-.456.179-.473 0-.802-.154-1.055-.402l-.452-.445-.327.544c-1.643 2.735-3.881 5.043-6.522 6.726l-.232.148v.274z" fill="url(#h)" stroke="url(#i)"/><path d="m.847107 302.074c-79.733307 46.045-92.235407 34.57-120.256107 45.057v149.827h920.019v-217.024c-47.285 0-123.175 48.164-158.201 48.164-12.804 0-17.513-4.272-63.047-29.131-36.428-19.887-73.296 8.447-85.166 19.323-29.941 19.032-45.45-4.719-99.157-5.34-53.706-.621-79.311 37.288-95.657 34.181-10.35-1.968-24.28-26.024-51.717-45.057-27.437-19.032-46.273 0-64.098 10.876-48.453 12.818-72.191-7.502-102.1599-28.743-26.8533-19.033-49.6203 0-80.559993 17.867z" fill="url(#j)"/></svg>